HIERARCHY
ROOT Hips
{
	OFFSET 0.00000 0.00000 0.00000
	CHANNELS 6 Xposition Yposition Zposition Zrotation Yrotation Xrotation 
	JOINT LHipJoint
	{
		OFFSET 0 0 0
		CHANNELS 3 Zrotation Yrotation Xrotation
		JOINT LeftUpLeg
		{
			OFFSET 1.23340 -1.80723 0.69510
			CHANNELS 3 Zrotation Yrotation Xrotation
			JOINT LeftLeg
			{
				OFFSET 2.50056 -6.87023 0.00000
				CHANNELS 3 Zrotation Yrotation Xrotation
				JOINT LeftFoot
				{
					OFFSET 2.85931 -7.85591 0.00000
					CHANNELS 3 Zrotation Yrotation Xrotation
					JOINT LeftToeBase
					{
						OFFSET 0.21001 -0.57700 2.07823
						CHANNELS 3 Zrotation Yrotation Xrotation
						End Site
						{
							OFFSET 0.00000 -0.00000 1.08338
						}
					}
				}
			}
		}
	}
	JOINT RHipJoint
	{
		OFFSET 0 0 0
		CHANNELS 3 Zrotation Yrotation Xrotation
		JOINT RightUpLeg
		{
			OFFSET -1.40842 -1.80723 0.69510
			CHANNELS 3 Zrotation Yrotation Xrotation
			JOINT RightLeg
			{
				OFFSET -2.54876 -7.00266 0.00000
				CHANNELS 3 Zrotation Yrotation Xrotation
				JOINT RightFoot
				{
					OFFSET -2.74835 -7.55104 0.00000
					CHANNELS 3 Zrotation Yrotation Xrotation
					JOINT RightToeBase
					{
						OFFSET -0.22633 -0.62184 2.00890
						CHANNELS 3 Zrotation Yrotation Xrotation
						End Site
						{
							OFFSET -0.00000 -0.00000 1.05493
						}
					}
				}
			}
		}
	}
	JOINT LowerBack
	{
		OFFSET 0 0 0
		CHANNELS 3 Zrotation Yrotation Xrotation
		JOINT Spine
		{
			OFFSET -0.02340 2.02740 -0.12728
			CHANNELS 3 Zrotation Yrotation Xrotation
			JOINT Spine1
			{
				OFFSET -0.00862 2.03614 -0.01188
				CHANNELS 3 Zrotation Yrotation Xrotation
				JOINT Neck
				{
					OFFSET 0 0 0
					CHANNELS 3 Zrotation Yrotation Xrotation
					JOINT Neck1
					{
						OFFSET 0.03380 1.76650 0.27670
						CHANNELS 3 Zrotation Yrotation Xrotation
						JOINT Head
						{
							OFFSET -0.01114 1.80516 -0.21451
							CHANNELS 3 Zrotation Yrotation Xrotation
							End Site
							{
								OFFSET -0.00766 1.81942 -0.10287
							}
						}
					}
				}
				JOINT LeftShoulder
				{
					OFFSET 0 0 0
					CHANNELS 3 Zrotation Yrotation Xrotation
					JOINT LeftArm
					{
						OFFSET 3.22358 1.39475 0.18630
						CHANNELS 3 Zrotation Yrotation Xrotation
						JOINT LeftForeArm
						{
							OFFSET 5.45077 -0.00000 0.00000
							CHANNELS 3 Zrotation Yrotation Xrotation
							JOINT LeftHand
							{
								OFFSET 3.05488 -0.00000 0.00000
								CHANNELS 3 Zrotation Yrotation Xrotation
								JOINT LeftFingerBase
								{
									OFFSET 0 0 0
									CHANNELS 3 Zrotation Yrotation Xrotation
									JOINT LeftHandIndex1
									{
										OFFSET 0.63882 -0.00000 0.00000
										CHANNELS 3 Zrotation Yrotation Xrotation
										End Site
										{
											OFFSET 0.51503 -0.00000 0.00000
										}
									}
								}
								JOINT LThumb
								{
									OFFSET 0 0 0
									CHANNELS 3 Zrotation Yrotation Xrotation
									End Site
									{
										OFFSET 0.52290 -0.00000 0.52290
									}
								}
							}
						}
					}
				}
				JOINT RightShoulder
				{
					OFFSET 0 0 0
					CHANNELS 3 Zrotation Yrotation Xrotation
					JOINT RightArm
					{
						OFFSET -3.57143 1.14055 0.30691
						CHANNELS 3 Zrotation Yrotation Xrotation
						JOINT RightForeArm
						{
							OFFSET -4.88702 -0.00000 -0.00000
							CHANNELS 3 Zrotation Yrotation Xrotation
							JOINT RightHand
							{
								OFFSET -3.22603 -0.00000 0.00000
								CHANNELS 3 Zrotation Yrotation Xrotation
								JOINT RightFingerBase
								{
									OFFSET 0 0 0
									CHANNELS 3 Zrotation Yrotation Xrotation
									JOINT RightHandIndex1
									{
										OFFSET -0.71629 -0.00000 0.00000
										CHANNELS 3 Zrotation Yrotation Xrotation
										End Site
										{
											OFFSET -0.57749 -0.00000 0.00000
										}
									}
								}
								JOINT RThumb
								{
									OFFSET 0 0 0
									CHANNELS 3 Zrotation Yrotation Xrotation
									End Site
									{
										OFFSET -0.58631 -0.00000 0.58631
									}
								}
							}
						}
					}
				}
			}
		}
	}
}
MOTION
Frames: 6
Frame Time: .0083333
1.765 18.4626 0.6182 0 0 0 0 0 0 -21 0 0 0 0 0 0 0 0 0 0 0 0 0 0 21 0 0 0 0 0 0 0 0 0 0 0 0 0 0 0 0 0 0 0 0 0 0 -16 0 0 21 0 0 11 0 0 0 -8 0 0 0 0 0 0 0 0 0 0 0 0 0 0 0 0 0 0 0 0 8 0 0 0 0 0 0 0 0 0 0 0 0 0 0 0 0 0
1.7650 18.4626 0.6182 94.9296 86.7705 105.5880 0.0000 0.0000 0.0000 -19.2462 4.0012 -11.5268 0.4520 4.3130 11.9591 0.4583 -5.2399 -12.0710 2.0695 -9.0094 -25.8246 0.0000 0.0000 0.0000 14.7706 -1.2420 -11.1514 -0.4746 -4.4183 12.2566 -0.6140 2.4289 -14.1716 -0.5480 4.7423 -13.1750 -3.3345 -2.4666 -10.8769 0.1872 -2.7889 -3.9944 1.7194 -1.3117 2.0953 1.9008 0.3691 -16.0813 -1.5145 0.4729 19.2261 -0.7630 0.2481 8.6637 0.0000 0.0000 0.0000 -84.3167 4.0579 40.8300 17.9956 -28.1516 -4.5472 -0.0000 0.0000 -10.1772 8.6101 26.4068 3.8526 -7.1250 0.0000 -0.0000 -22.7343 55.1637 -5.8973 0.0000 0.0000 0.0000 88.0913 -2.2519 36.0797 -14.7441 23.7885 -3.1220 0.0000 0.0000 6.8215 -14.6834 7.9891 -2.0857 7.1250 -0.0000 -0.0000 8.8142 -21.7600 4.9764
1.7666 18.4633 0.6162 94.8427 86.7953 105.5140 0.0000 0.0000 0.0000 -19.2364 3.9996 -11.5256 0.4502 4.3045 11.9349 0.4585 -5.1772 -12.0697 2.0986 -9.0685 -26.0100 0.0000 0.0000 0.0000 14.7832 -1.1303 -11.1213 -0.4756 -4.4229 12.2695 -0.6172 2.3717 -14.2194 -0.5439 4.7249 -13.1255 -3.3189 -2.4632 -10.8544 0.2104 -2.7869 -4.0331 1.7367 -1.3090 2.0431 1.9552 0.4166 -15.9937 -1.6067 0.5502 19.2772 -0.7939 0.2802 8.6670 0.0000 0.0000 0.0000 -84.3811 4.1553 40.6890 18.0189 -28.1814 -4.5582 -0.0000 0.0000 -10.2280 8.6439 26.3149 3.8554 -7.1250 0.0000 -0.0000 -22.6429 55.0857 -5.8278 0.0000 0.0000 0.0000 88.0495 -2.2964 35.9791 -14.7356 23.7765 -3.1186 0.0000 0.0000 6.8345 -14.7536 8.0532 -2.1128 7.1250 -0.0000 -0.0000 8.7611 -21.6917 4.9594
1.7683 18.4635 0.6141 94.9756 86.7609 105.6750 0.0000 0.0000 0.0000 -19.2876 3.9824 -11.5831 0.4523 4.3144 11.9628 0.4548 -5.1669 -12.0220 2.0926 -9.0563 -25.9716 0.0000 0.0000 0.0000 14.7360 -1.0895 -11.1141 -0.4751 -4.4204 12.2624 -0.6146 2.3156 -14.1989 -0.5428 4.7205 -13.1129 -3.3466 -2.4777 -10.8862 0.2076 -2.8011 -4.0449 1.7465 -1.3155 2.0501 1.9963 0.4674 -15.9408 -1.6793 0.6285 19.2862 -0.8158 0.3131 8.6624 0.0000 -0.0000 0.0000 -84.4248 4.1822 40.5102 18.0410 -28.2096 -4.5686 -0.0000 0.0000 -10.3463 8.6136 26.3024 3.8400 -7.1250 0.0000 -0.0000 -22.6646 55.0683 -5.8241 0.0000 -0.0000 0.0000 88.0549 -2.2683 35.8109 -14.6951 23.7197 -3.1023 0.0000 0.0000 6.8651 -14.7355 8.1367 -2.1318 7.1250 -0.0000 -0.0000 8.7712 -21.6073 4.9823
1.7699 18.4639 0.6133 95.1084 86.8160 105.7950 0.0000 0.0000 0.0000 -19.2213 3.9684 -11.6003 0.4556 4.3303 12.0078 0.4544 -5.1350 -12.0152 2.0728 -9.0161 -25.8458 0.0000 0.0000 0.0000 14.7964 -1.0838 -11.0824 -0.4733 -4.4121 12.2389 -0.6156 2.2997 -14.2132 -0.5642 4.8111 -13.3705 -3.2796 -2.4690 -10.8900 0.2125 -2.7970 -4.0327 1.7142 -1.3143 2.0618 1.9851 0.5057 -15.9919 -1.6642 0.6832 19.3904 -0.8025 0.3404 8.7082 -0.0000 0.0000 0.0000 -84.4613 4.1801 40.3201 18.0415 -28.2103 -4.5688 -0.0000 0.0000 -10.4511 8.5872 26.2618 3.8226 -7.1250 0.0000 -0.0000 -22.6649 55.0260 -5.8003 -0.0000 0.0000 0.0000 88.0991 -2.2412 35.5939 -14.6712 23.6861 -3.0927 0.0000 0.0000 6.9941 -14.7836 8.1377 -2.1394 7.1250 -0.0000 -0.0000 8.7365 -21.6041 4.9628
1.7714 18.4643 0.6127 95.6268 86.8818 106.2730 0.0000 0.0000 0.0000 -19.1431 4.0300 -11.5908 0.4585 4.3438 12.0460 0.4565 -5.1757 -12.0437 2.1071 -9.0857 -26.0638 0.0000 0.0000 0.0000 14.8723 -1.0267 -10.9967 -0.4724 -4.4082 12.2279 -0.6236 2.2317 -14.3216 -0.5642 4.8107 -13.3695 -3.2332 -2.4800 -10.8618 0.2502 -2.8196 -4.0162 1.7250 -1.3264 2.0647 1.9438 0.5433 -16.0613 -1.6440 0.7448 19.5412 -0.7817 0.3695 8.7733 0.0000 -0.0000 0.0000 -84.5292 4.2167 40.0732 18.0659 -28.2414 -4.5804 -0.0000 0.0000 -10.4117 8.4920 26.2716 3.7810 -7.1250 0.0000 -0.0000 -22.7642 55.0167 -5.8225 0.0000 -0.0000 0.0000 88.0346 -2.2344 35.6363 -14.6888 23.7108 -3.0997 0.0000 0.0000 6.8734 -14.6889 8.1596 -2.1307 7.1250 -0.0000 -0.0000 8.8040 -21.5859 5.0057
